<svg xmlns="http://www.w3.org/2000/svg"  viewBox="0 0 24 24" width="96px" height="96px"><rect width="4" height="2" x="10" y="5" opacity=".35"/><path d="M8,10H6V8c0-0.552,0.448-1,1-1h1V10z" opacity=".35"/><path d="M18,10h-2V7h1c0.552,0,1,0.448,1,1V10z" opacity=".35"/><path d="M11,23H7v0c0-1.105,0.895-2,2-2h0C10.105,21,11,21.895,11,23L11,23z" opacity=".35"/><path d="M17,23h-4v0c0-1.105,0.895-2,2-2h0C16.105,21,17,21.895,17,23L17,23z" opacity=".35"/><path d="M4,10v4h1c0.552,0,1,0.448,1,1V8C4.895,8,4,8.895,4,10z"/><path d="M5,17H4c-0.552,0-1-0.448-1-1v-1c0-0.552,0.448-1,1-1h1c0.552,0,1,0.448,1,1v1	C6,16.552,5.552,17,5,17z" opacity=".35"/><path d="M20,17h-1c-0.552,0-1-0.448-1-1v-1c0-0.552,0.448-1,1-1h1c0.552,0,1,0.448,1,1v1	C21,16.552,20.552,17,20,17z" opacity=".35"/><path d="M19,14h1v-4c0-1.105-0.895-2-2-2v7C18,14.448,18.448,14,19,14z"/><path d="M14,1h-4C9.448,1,9,1.448,9,2v2c0,0.552,0.448,1,1,1h4c0.552,0,1-0.448,1-1V2C15,1.448,14.552,1,14,1z M13,4h-2	c-0.552,0-1-0.448-1-1c0-0.552,0.448-1,1-1h2c0.552,0,1,0.448,1,1C14,3.552,13.552,4,13,4z"/><path d="M13,4h-2c-0.552,0-1-0.448-1-1v0c0-0.552,0.448-1,1-1h2c0.552,0,1,0.448,1,1v0	C14,3.552,13.552,4,13,4z" opacity=".35"/><path d="M13,14h-2c-0.552,0-1-0.448-1-1V9c0-0.552,0.448-1,1-1h2c0.552,0,1,0.448,1,1v4	C14,13.552,13.552,14,13,14z" opacity=".35"/><path d="M12,13L12,13c-0.552,0-1-0.448-1-1v-2c0-0.552,0.448-1,1-1h0c0.552,0,1,0.448,1,1v2C13,12.552,12.552,13,12,13z"/><path d="M15,6H9C8.448,6,8,6.448,8,7v8v1v2c0-0.552,0.448-1,1-1s1,0.448,1,1v-2h4v2c0-0.552,0.448-1,1-1s1,0.448,1,1v-2v-1V7 C16,6.448,15.552,6,15,6z M13,14h-2c-0.552,0-1-0.448-1-1V9c0-0.552,0.448-1,1-1h2c0.552,0,1,0.448,1,1v4 C14,13.552,13.552,14,13,14z"/><path d="M9,19c-0.552,0-1-0.448-1-1v3.277C8.295,21.106,8.634,21,9,21s0.705,0.106,1,0.277V18C10,18.552,9.552,19,9,19z"/><path d="M15,19c-0.552,0-1-0.448-1-1v3.277C14.295,21.106,14.634,21,15,21s0.705,0.106,1,0.277V18C16,18.552,15.552,19,15,19z"/><circle cx="9" cy="18" r="1" opacity=".35"/><circle cx="15" cy="18" r="1" opacity=".35"/></svg>